name C:\Users\r0593348\3dpredictsim\Results\Batchsim_tmt_linear\Pog_s1_tmt_aCst_d02_k1000_ig24_pas.mot
datacolumns 128
datarows 4
range 0.55280385 0.58597208
endheader
time	pelvis_tilt	pelvis_list	pelvis_rotation	pelvis_tx	pelvis_ty	pelvis_tz	hip_flexion_l	hip_adduction_l	hip_rotation_l	hip_flexion_r	hip_adduction_r	hip_rotation_r	knee_angle_l	knee_angle_r	ankle_angle_l	ankle_angle_r	subtalar_angle_l	subtalar_angle_r	tmt_angle_l	tmt_angle_r	mtp_angle_l	mtp_angle_r	lumbar_extension	lumbar_bending	lumbar_rotation	arm_flex_l	arm_add_l	arm_rot_l	arm_flex_r	arm_add_r	arm_rot_r	elbow_flex_l	elbow_flex_r	pro_sup_l	pro_sup_r	glut_med1_l/activation	glut_med2_l/activation	glut_med3_l/activation	glut_min1_l/activation	glut_min2_l/activation	glut_min3_l/activation	semimem_l/activation	semiten_l/activation	bifemlh_l/activation	bifemsh_l/activation	sar_l/activation	add_long_l/activation	add_brev_l/activation	add_mag1_l/activation	add_mag2_l/activation	add_mag3_l/activation	tfl_l/activation	pect_l/activation	grac_l/activation	glut_max1_l/activation	glut_max2_l/activation	glut_max3_l/activation	iliacus_l/activation	psoas_l/activation	quad_fem_l/activation	gem_l/activation	peri_l/activation	rect_fem_l/activation	vas_med_l/activation	vas_int_l/activation	vas_lat_l/activation	med_gas_l/activation	lat_gas_l/activation	soleus_l/activation	tib_post_l/activation	flex_dig_l/activation	flex_hal_l/activation	tib_ant_l/activation	per_brev_l/activation	per_long_l/activation	per_tert_l/activation	ext_dig_l/activation	ext_hal_l/activation	ercspn_l/activation	intobl_l/activation	extobl_l/activation	glut_med1_r/activation	glut_med2_r/activation	glut_med3_r/activation	glut_min1_r/activation	glut_min2_r/activation	glut_min3_r/activation	semimem_r/activation	semiten_r/activation	bifemlh_r/activation	bifemsh_r/activation	sar_r/activation	add_long_r/activation	add_brev_r/activation	add_mag1_r/activation	add_mag2_r/activation	add_mag3_r/activation	tfl_r/activation	pect_r/activation	grac_r/activation	glut_max1_r/activation	glut_max2_r/activation	glut_max3_r/activation	iliacus_r/activation	psoas_r/activation	quad_fem_r/activation	gem_r/activation	peri_r/activation	rect_fem_r/activation	vas_med_r/activation	vas_int_r/activation	vas_lat_r/activation	med_gas_r/activation	lat_gas_r/activation	soleus_r/activation	tib_post_r/activation	flex_dig_r/activation	flex_hal_r/activation	tib_ant_r/activation	per_brev_r/activation	per_long_r/activation	per_tert_r/activation	ext_dig_r/activation	ext_hal_r/activation	ercspn_r/activation	intobl_r/activation	extobl_r/activation	
          0.55280385	         -2.92482223	          2.41955538	         -6.02815175	          0.69100482	          0.85562190	          0.00318486	         32.13930865	          3.21880791	         -3.10680770	        -18.36918127	         -2.10389321	          7.76443379	        -15.94849237	         -8.35111406	          5.69825469	         -0.10898848	         -2.65638190	         11.99212788	          0.03031089	          1.02029971	         -0.11154102	         22.87170537	         -2.26142615	         -1.03349194	          1.99862547	         -9.80513776	        -13.61315887	          6.44398988	          7.67130772	        -13.47172239	         17.31663749	         14.70178948	         40.30279278	         86.51662706	         86.51662706	          0.05118116	          0.05000185	          0.05000219	          0.05000203	          0.05000188	          0.05000397	          0.05921254	          0.05921166	          0.28105121	          0.05000081	          0.05000129	          0.11620641	          0.20582205	          0.15649834	          0.17458682	          0.12434069	          0.05000257	          0.05113465	          0.05921318	          0.05000448	          0.06960391	          0.12541691	          0.05883305	          0.05920920	          0.25090702	          0.05687877	          0.06807441	          0.05538529	          0.15813415	          0.15982285	          0.13454968	          0.05921219	          0.05000290	          0.05921336	          0.05000017	          0.05000320	          0.05001825	          0.54681321	          0.37276769	          0.21331971	          0.31900624	          0.59130955	          0.26802564	          0.06276937	          0.09279505	          0.09504653	          0.25211633	          0.09753143	          0.05430738	          0.32596251	          0.20452586	          0.09845041	          0.05000665	          0.05000062	          0.05000048	          0.07939692	          0.10534429	          0.13108586	          0.05000578	          0.05000266	          0.05000432	          0.05000314	          0.31506077	          0.06071303	          0.05000214	          0.05000782	          0.05000561	          0.05000445	          0.37420925	          0.60604433	          0.05000058	          0.05000167	          0.05000045	          0.22850332	          0.11650723	          0.05141216	          0.06323104	          0.30183233	          0.40667592	          0.27672909	          0.25616580	          0.28286825	          0.35698234	          0.05000004	          0.06900708	          0.18328508	          0.05000029	          0.05000008	          0.05000025	          0.05000004	          0.05000010	          0.05000012	
          0.56385993	         -2.91443220	          2.52651796	         -6.28245701	          0.70800595	          0.85449774	          0.00295974	         31.47494310	          3.65727255	         -2.91210640	        -18.06456604	         -2.41976875	          7.57481458	        -15.82447444	        -10.62773783	          5.15872163	         -1.12389946	         -3.17319874	         13.09030386	          0.04168741	          0.95241616	         -0.10374200	         23.87544686	         -2.03957749	         -1.28346186	          2.09054244	        -10.95270286	        -13.60939381	          6.26469531	          7.39557575	        -13.49929874	         17.50525223	         14.63396638	         41.54274728	         86.51662706	         86.51662706	          0.05000011	          0.05000035	          0.08656645	          0.05000025	          0.05000039	          0.05000055	          0.05000010	          0.05000017	          0.24106861	          0.05000019	          0.05000281	          0.09812594	          0.17379763	          0.34031231	          0.24199812	          0.11343176	          0.05000045	          0.05000515	          0.05000120	          0.05921333	          0.05950841	          0.14827980	          0.05000021	          0.05000085	          0.56876058	          0.13233763	          0.11536363	          0.07012454	          0.24595103	          0.24662388	          0.20982700	          0.05000001	          0.05000005	          0.05000000	          0.05000078	          0.07009315	          0.05000185	          0.64075320	          0.31476697	          0.21350811	          0.53538538	          0.62609624	          0.27582425	          0.05300271	          0.07835648	          0.08025764	          0.21288806	          0.08235594	          0.05921361	          0.27524422	          0.17270249	          0.08313197	          0.05000498	          0.05000058	          0.05000078	          0.06704308	          0.08895351	          0.21033368	          0.16762302	          0.07013409	          0.05011549	          0.05000913	          0.26603904	          0.10671689	          0.05001539	          0.05000536	          0.05000350	          0.05000369	          0.31598370	          0.54380458	          0.05029669	          0.05922068	          0.05921378	          0.19294914	          0.13793349	          0.13793443	          0.13793327	          0.25486828	          0.34339860	          0.23367102	          0.21630748	          0.23885547	          0.30143751	          0.05000004	          0.05826995	          0.15476692	          0.05000019	          0.05000005	          0.05000025	          0.06126239	          0.07012448	          0.05000013	
          0.57491601	         -2.89945263	          2.63384908	         -6.50828363	          0.72526932	          0.85330813	          0.00274924	         30.65196266	          4.02456239	         -2.62986704	        -17.66812553	         -2.71964473	          7.37134276	        -16.17719847	        -13.05493102	          4.63789793	         -2.30537575	         -3.72195712	         14.11524167	         -0.03411732	          0.86633126	         -0.15665127	         24.65329299	         -1.79832656	         -1.53718347	          2.17119455	        -12.09499102	        -13.61020119	          6.14500447	          7.03316132	        -13.52863899	         17.61972102	         14.57634859	         42.75482876	         86.51662706	         86.51662706	          0.30614200	          0.29347372	          0.34221716	          0.05000399	          0.05000143	          0.05000095	          0.09053330	          0.10107614	          0.20961495	          0.05000081	          0.05000175	          0.08288705	          0.19636597	          0.28736137	          0.20521565	          0.16015101	          0.05000076	          0.07012184	          0.14428729	          0.05000039	          0.05024922	          0.12521079	          0.05186833	          0.05000085	          0.48026350	          0.11174659	          0.24454647	          0.05921343	          0.20768212	          0.20825045	          0.17717886	          0.05921347	          0.05921346	          0.05921341	          0.05000018	          0.05918809	          0.05921292	          0.54105445	          0.41105797	          0.20234515	          0.45208609	          0.64066803	          0.23290718	          0.05762368	          0.08304664	          0.06776985	          0.31119689	          0.06954170	          0.05000067	          0.23241841	          0.14583073	          0.07019701	          0.06348429	          0.05000060	          0.05000059	          0.05661148	          0.07511306	          0.18040075	          0.26434990	          0.05922274	          0.05876774	          0.05000631	          0.22465682	          0.09011908	          0.05000753	          0.05002721	          0.05001956	          0.05002486	          0.26681785	          0.49492276	          0.05605405	          0.05000723	          0.05000044	          0.16292695	          0.11647176	          0.11647249	          0.11647150	          0.21521167	          0.28996700	          0.19731263	          0.18265086	          0.20169063	          0.25453507	          0.05000025	          0.05000127	          0.19018443	          0.05000026	          0.10731069	          0.05000056	          0.07733819	          0.05921338	          0.05000024	
          0.58597208	         -2.88190652	          2.73759187	         -6.69907774	          0.74257987	          0.85207974	          0.00252222	         29.70467201	          4.35007518	         -2.33264804	        -17.15341593	         -2.99585789	          7.16371456	        -16.55717386	        -15.65685857	          4.35511754	         -3.55342657	         -4.29529758	         15.05023630	         -0.01633174	          0.72117881	         -0.16818592	         25.00823078	         -1.55788047	         -1.78806177	          2.24123848	        -13.17643095	        -13.61317691	          6.10607486	          6.62149010	        -13.56321981	         17.67858988	         14.48848943	         43.91243909	         86.51662706	         86.51662706	          0.39989260	          0.43692935	          0.48798976	          0.26975277	          0.23507143	          0.34609379	          0.08187225	          0.12502060	          0.17699965	          0.07012498	          0.05000150	          0.06999024	          0.16581221	          0.24264958	          0.22479554	          0.18041592	          0.05000046	          0.05921231	          0.12183942	          0.26650314	          0.19845630	          0.17180626	          0.05000025	          0.05000026	          0.40553630	          0.09435966	          0.20866395	          0.05000010	          0.20905990	          0.25869062	          0.19698539	          0.05000010	          0.05000015	          0.05000002	          0.05000002	          0.05000033	          0.05000025	          0.70056171	          0.34709895	          0.17086106	          0.68457495	          0.68505160	          0.40710754	          0.08566706	          0.07012493	          0.05722513	          0.26277596	          0.05872131	          0.05000007	          0.21408819	          0.12314013	          0.05927469	          0.08852148	          0.05000040	          0.05000040	          0.05000023	          0.06342627	          0.19109885	          0.22321941	          0.05000839	          0.05000182	          0.05000508	          0.20015725	          0.07609843	          0.05000063	          0.05000151	          0.05000092	          0.05000060	          0.22530200	          0.43473152	          0.05000010	          0.05000053	          0.05000026	          0.13757612	          0.09834934	          0.09834992	          0.09834909	          0.18172550	          0.24484918	          0.16661148	          0.15423111	          0.17030855	          0.21493054	          0.16779151	          0.11201140	          0.16059260	          0.32140488	          0.23607635	          0.13458466	          0.10706503	          0.05000003	          0.05000008	
